<svg width="19" height="19" viewBox="0 0 19 19" fill="none" xmlns="http://www.w3.org/2000/svg">
<path d="M9.61011 2.32703C8.16383 2.32703 6.75004 2.7559 5.5475 3.5594C4.34497 4.36291 3.40771 5.50497 2.85424 6.84115C2.30078 8.17734 2.15596 9.64764 2.43812 11.0661C2.72027 12.4846 3.41672 13.7876 4.43939 14.8102C5.46206 15.8329 6.76503 16.5294 8.18351 16.8115C9.602 17.0937 11.0723 16.9489 12.4085 16.3954C13.7447 15.8419 14.8867 14.9047 15.6902 13.7021C16.4937 12.4996 16.9226 11.0858 16.9226 9.63953C16.9206 7.70076 16.1495 5.84199 14.7786 4.47107C13.4077 3.10015 11.5489 2.32907 9.61011 2.32703ZM12.8206 8.35L8.88308 12.2875C8.83084 12.3398 8.7688 12.3813 8.70051 12.4096C8.63223 12.4379 8.55903 12.4525 8.48511 12.4525C8.41119 12.4525 8.33799 12.4379 8.26971 12.4096C8.20142 12.3813 8.13938 12.3398 8.08714 12.2875L6.39964 10.6C6.29409 10.4944 6.2348 10.3513 6.2348 10.202C6.2348 10.0528 6.29409 9.90961 6.39964 9.80406C6.50519 9.69851 6.64834 9.63921 6.79761 9.63921C6.94688 9.63921 7.09003 9.69851 7.19558 9.80406L8.48511 11.0943L12.0246 7.55406C12.0769 7.5018 12.1389 7.46034 12.2072 7.43205C12.2755 7.40377 12.3487 7.38921 12.4226 7.38921C12.4965 7.38921 12.5697 7.40377 12.638 7.43205C12.7063 7.46034 12.7683 7.5018 12.8206 7.55406C12.8728 7.60632 12.9143 7.66836 12.9426 7.73665C12.9709 7.80493 12.9854 7.87812 12.9854 7.95203C12.9854 8.02594 12.9709 8.09912 12.9426 8.16741C12.9143 8.23569 12.8728 8.29773 12.8206 8.35Z" fill="#0277EE"/>
</svg>
