<svg width="24" height="25" viewBox="0 0 24 25" fill="none" xmlns="http://www.w3.org/2000/svg">
<path fill-rule="evenodd" clip-rule="evenodd" d="M10.7574 2.94339C11.8826 1.81818 13.4087 1.18604 15 1.18604H18C18.5523 1.18604 19 1.63375 19 2.18604V6.18604C19 6.73832 18.5523 7.18604 18 7.18604H15V9.18604H18C18.3079 9.18604 18.5987 9.32791 18.7882 9.57062C18.9777 9.81334 19.0448 10.1298 18.9701 10.4286L17.9701 14.4286C17.8589 14.8737 17.4589 15.186 17 15.186H15V22.186C15 22.7383 14.5523 23.186 14 23.186H10C9.44772 23.186 9 22.7383 9 22.186V15.186H7C6.44772 15.186 6 14.7383 6 14.186V10.186C6 9.63375 6.44772 9.18604 7 9.18604H9V7.18604C9 5.59474 9.63214 4.06861 10.7574 2.94339ZM15 3.18604C13.9391 3.18604 12.9217 3.60746 12.1716 4.35761C11.4214 5.10775 11 6.12517 11 7.18604V10.186C11 10.7383 10.5523 11.186 10 11.186H8V13.186H10C10.5523 13.186 11 13.6337 11 14.186V21.186H13V14.186C13 13.6337 13.4477 13.186 14 13.186H16.2192L16.7192 11.186H14C13.4477 11.186 13 10.7383 13 10.186V7.18604C13 6.6556 13.2107 6.14689 13.5858 5.77182C13.9609 5.39675 14.4696 5.18604 15 5.18604H17V3.18604H15Z" fill="white"/>
</svg>
