<svg width="24" height="25" viewBox="0 0 24 25" fill="none" xmlns="http://www.w3.org/2000/svg">
<path fill-rule="evenodd" clip-rule="evenodd" d="M7 3.18604C4.79086 3.18604 3 4.9769 3 7.18604V17.186C3 19.3952 4.79086 21.186 7 21.186H17C19.2091 21.186 21 19.3952 21 17.186V7.18604C21 4.9769 19.2091 3.18604 17 3.18604H7ZM1 7.18604C1 3.87233 3.68629 1.18604 7 1.18604H17C20.3137 1.18604 23 3.87233 23 7.18604V17.186C23 20.4997 20.3137 23.186 17 23.186H7C3.68629 23.186 1 20.4997 1 17.186V7.18604Z" fill="white"/>
<path fill-rule="evenodd" clip-rule="evenodd" d="M12.4833 9.17528C11.8591 9.08272 11.2217 9.18933 10.6616 9.47996C10.1015 9.77058 9.64727 10.2304 9.36357 10.7941C9.07988 11.3577 8.98113 11.9964 9.08138 12.6194C9.18163 13.2424 9.47577 13.818 9.92196 14.2641C10.3682 14.7103 10.9437 15.0045 11.5667 15.1047C12.1897 15.205 12.8284 15.1062 13.392 14.8225C13.9557 14.5388 14.4155 14.0846 14.7061 13.5245C14.9968 12.9644 15.1034 12.327 15.0108 11.7028C14.9164 11.0661 14.6197 10.4766 14.1646 10.0215C13.7095 9.56637 13.12 9.26969 12.4833 9.17528ZM9.74043 7.70471C10.6739 7.22034 11.7364 7.04265 12.7767 7.19691C13.8379 7.35427 14.8203 7.84874 15.5788 8.60729C16.3374 9.36585 16.8318 10.3483 16.9892 11.4094C17.1435 12.4497 16.9658 13.5122 16.4814 14.4457C15.997 15.3792 15.2306 16.1362 14.2912 16.609C13.3518 17.0818 12.2873 17.2464 11.2489 17.0793C10.2106 16.9122 9.2514 16.422 8.50775 15.6784C7.76409 14.9347 7.27386 13.9755 7.10678 12.9372C6.9397 11.8988 7.10428 10.8343 7.5771 9.89488C8.04993 8.95548 8.80693 8.18909 9.74043 7.70471Z" fill="white"/>
<path fill-rule="evenodd" clip-rule="evenodd" d="M16.5 6.68604C16.5 6.13375 16.9477 5.68604 17.5 5.68604H17.51C18.0623 5.68604 18.51 6.13375 18.51 6.68604C18.51 7.23832 18.0623 7.68604 17.51 7.68604H17.5C16.9477 7.68604 16.5 7.23832 16.5 6.68604Z" fill="white"/>
</svg>
