<svg width="24" height="25" viewBox="0 0 24 25" fill="none" xmlns="http://www.w3.org/2000/svg">
<path fill-rule="evenodd" clip-rule="evenodd" d="M16 9.18604C14.6739 9.18604 13.4021 9.71282 12.4645 10.6505C11.5268 11.5882 11 12.86 11 14.186V20.186H13V14.186C13 13.3904 13.3161 12.6273 13.8787 12.0647C14.4413 11.5021 15.2043 11.186 16 11.186C16.7957 11.186 17.5587 11.5021 18.1213 12.0647C18.6839 12.6273 19 13.3904 19 14.186V20.186H21V14.186C21 12.86 20.4732 11.5882 19.5355 10.6505C18.5979 9.71282 17.3261 9.18604 16 9.18604ZM11.0503 9.23629C12.363 7.92353 14.1435 7.18604 16 7.18604C17.8565 7.18604 19.637 7.92353 20.9497 9.23629C22.2625 10.549 23 12.3295 23 14.186V21.186C23 21.7383 22.5523 22.186 22 22.186H18C17.4477 22.186 17 21.7383 17 21.186V14.186C17 13.9208 16.8946 13.6665 16.7071 13.4789C16.5196 13.2914 16.2652 13.186 16 13.186C15.7348 13.186 15.4804 13.2914 15.2929 13.4789C15.1054 13.6665 15 13.9208 15 14.186V21.186C15 21.7383 14.5523 22.186 14 22.186H10C9.44772 22.186 9 21.7383 9 21.186V14.186C9 12.3295 9.7375 10.549 11.0503 9.23629Z" fill="white"/>
<path fill-rule="evenodd" clip-rule="evenodd" d="M1 9.18604C1 8.63375 1.44772 8.18604 2 8.18604H6C6.55228 8.18604 7 8.63375 7 9.18604V21.186C7 21.7383 6.55228 22.186 6 22.186H2C1.44772 22.186 1 21.7383 1 21.186V9.18604ZM3 10.186V20.186H5V10.186H3Z" fill="white"/>
<path fill-rule="evenodd" clip-rule="evenodd" d="M4 3.18604C3.44772 3.18604 3 3.63375 3 4.18604C3 4.73832 3.44772 5.18604 4 5.18604C4.55228 5.18604 5 4.73832 5 4.18604C5 3.63375 4.55228 3.18604 4 3.18604ZM1 4.18604C1 2.52918 2.34315 1.18604 4 1.18604C5.65685 1.18604 7 2.52918 7 4.18604C7 5.84289 5.65685 7.18604 4 7.18604C2.34315 7.18604 1 5.84289 1 4.18604Z" fill="white"/>
</svg>
