<svg width="19" height="18" viewBox="0 0 19 18" fill="white" xmlns="http://www.w3.org/2000/svg">
<path d="M14.6588 10.4573L11.8895 9.07269C11.7805 9.01837 11.6591 8.99377 11.5376 9.00137C11.416 9.00896 11.2986 9.04849 11.1972 9.11596L9.92599 9.96404C9.34242 9.64323 8.86218 9.16299 8.54138 8.57942L9.38945 7.30817C9.45692 7.20678 9.49645 7.08938 9.50405 6.96783C9.51164 6.84628 9.48704 6.72487 9.43272 6.61587L8.04811 3.84663C7.99072 3.73073 7.90201 3.63323 7.79204 3.56516C7.68206 3.4971 7.55523 3.4612 7.4259 3.46154C6.50784 3.46154 5.62738 3.82624 4.97822 4.4754C4.32905 5.12456 3.96436 6.00502 3.96436 6.92308C3.96665 8.9421 4.76972 10.8778 6.19738 12.3054C7.62505 13.7331 9.56072 14.5362 11.5797 14.5385C12.0343 14.5385 12.4844 14.4489 12.9044 14.275C13.3244 14.101 13.706 13.846 14.0274 13.5246C14.3489 13.2032 14.6038 12.8216 14.7778 12.4016C14.9517 11.9816 15.0413 11.5315 15.0413 11.0769C15.0414 10.9483 15.0056 10.8222 14.9381 10.7128C14.8705 10.6033 14.7738 10.5149 14.6588 10.4573ZM11.5797 13.1538C9.9278 13.152 8.34405 12.495 7.17595 11.3269C6.00785 10.1588 5.3508 8.57502 5.34897 6.92308C5.34884 6.44289 5.51509 5.9775 5.81945 5.60608C6.1238 5.23467 6.54745 4.9802 7.0183 4.88596L8.01176 6.87635L7.16628 8.13462C7.1031 8.22939 7.06428 8.33828 7.05326 8.45165C7.04224 8.56502 7.05936 8.67935 7.10311 8.78452C7.59844 9.96177 8.53499 10.8983 9.71224 11.3937C9.81773 11.4393 9.93293 11.458 10.0474 11.4481C10.162 11.4381 10.2722 11.3998 10.3682 11.3365L11.6325 10.4937L13.6229 11.4871C13.5279 11.9585 13.2724 12.3823 12.8997 12.6863C12.5271 12.9903 12.0606 13.1555 11.5797 13.1538ZM9.50282 2.14335e-07C7.94899 -0.000338851 6.42155 0.401615 5.06915 1.16674C3.71676 1.93186 2.58549 3.03408 1.78547 4.36613C0.985441 5.69817 0.543909 7.21465 0.503847 8.76796C0.463785 10.3213 0.826559 11.8585 1.55686 13.23L0.574646 16.1766C0.493286 16.4206 0.481479 16.6824 0.540548 16.9327C0.599616 17.183 0.727226 17.4119 0.909075 17.5937C1.09092 17.7756 1.31982 17.9032 1.57012 17.9623C1.82042 18.0213 2.08222 18.0095 2.32618 17.9282L5.27282 16.946C6.47983 17.5879 7.81723 17.9465 9.18352 17.9945C10.5498 18.0424 11.909 17.7785 13.1581 17.2227C14.4071 16.6668 15.5131 15.8338 16.3922 14.7867C17.2712 13.7397 17.9001 12.5061 18.2312 11.1797C18.5623 9.85325 18.5869 8.46883 18.303 7.13149C18.0192 5.79416 17.4344 4.53906 16.5931 3.46147C15.7518 2.38387 14.676 1.5121 13.4475 0.912336C12.219 0.312567 10.8699 0.000560968 9.50282 2.14335e-07ZM9.50282 16.6154C8.16405 16.6163 6.84877 16.2637 5.68993 15.5934C5.60509 15.5442 5.51076 15.5135 5.41318 15.5036C5.31561 15.4936 5.21703 15.5044 5.12397 15.5354L1.88743 16.6154L2.96657 13.3788C2.99768 13.2858 3.00867 13.1873 2.99882 13.0897C2.98898 12.9922 2.95851 12.8978 2.90945 12.8129C2.07001 11.3616 1.73297 9.67377 1.95063 8.01135C2.16829 6.34893 2.92849 4.8048 4.11328 3.61851C5.29807 2.43222 6.84124 1.67008 8.50338 1.45032C10.1655 1.23056 11.8537 1.56546 13.3061 2.40307C14.7585 3.24069 15.8939 4.53419 16.5361 6.08292C17.1783 7.63165 17.2915 9.34903 16.8581 10.9687C16.4247 12.5883 15.4689 14.0196 14.139 15.0406C12.8091 16.0615 11.1794 16.6151 9.50282 16.6154Z" fill="white"/>
</svg>
