<svg width="24" height="25" viewBox="0 0 24 25" fill="none" xmlns="http://www.w3.org/2000/svg">
<path fill-rule="evenodd" clip-rule="evenodd" d="M11.9998 3.18604C11.9999 3.18604 12 3.18604 12 4.18604L11.9999 5.18604L11.9245 5.18615C11.8745 5.18626 11.8005 5.18648 11.7057 5.18692C11.5159 5.18781 11.2425 5.1896 10.9088 5.19317C10.241 5.20031 9.33394 5.21459 8.37466 5.24309C7.41379 5.27165 6.40856 5.31425 5.54208 5.37745C4.65397 5.44223 3.99408 5.52364 3.66531 5.61023C3.36661 5.69603 3.09554 5.85856 2.8791 6.0817C2.66797 6.29936 2.51606 6.56723 2.43757 6.85979C2.13803 8.5334 1.99155 10.2309 1.99995 11.9311L2 11.9423C1.98928 13.6495 2.13467 15.3541 2.43444 17.0348C2.52106 17.3124 2.67449 17.5648 2.88154 17.7698C3.09845 17.9844 3.3669 18.1397 3.6611 18.2207C3.98842 18.3077 4.65016 18.3896 5.54208 18.4546C6.40856 18.5178 7.41379 18.5604 8.37466 18.589C9.33394 18.6175 10.241 18.6318 10.9088 18.6389C11.2425 18.6425 11.5159 18.6443 11.7057 18.6451C11.8005 18.6456 11.8745 18.6458 11.9245 18.6459H12.0754C12.1255 18.6458 12.1994 18.6456 12.2943 18.6451C12.484 18.6443 12.7575 18.6425 13.0911 18.6389C13.7589 18.6318 14.666 18.6175 15.6253 18.589C16.5861 18.5604 17.5914 18.5178 18.4578 18.4546C19.346 18.3898 20.0058 18.3084 20.3346 18.2218C20.6333 18.136 20.9044 17.9735 21.1208 17.7504C21.332 17.5327 21.4839 17.2649 21.5624 16.9723C21.8596 15.3114 22.006 13.627 22 11.9396L21.9999 11.9298C22.0107 10.2166 21.8642 8.50612 21.5624 6.8198C21.4839 6.52724 21.332 6.25937 21.1208 6.0417C20.9069 5.82112 20.6395 5.65977 20.3449 5.57321C20.0049 5.49323 19.3426 5.41951 18.4641 5.36101C17.5959 5.30319 16.5893 5.26425 15.6278 5.23817C14.6679 5.21212 13.7602 5.19908 13.0921 5.19255C12.7582 5.18929 12.4846 5.18766 12.2947 5.18685L12.0756 5.18614L11.9999 5.18604L12 4.18604C12 3.18604 11.9999 3.18604 11.9998 3.18604L12.0797 3.18614C12.1312 3.18624 12.2067 3.18645 12.3032 3.18686C12.4963 3.18769 12.7736 3.18934 13.1116 3.19265C13.7872 3.19924 14.7071 3.21245 15.6821 3.2389C16.6556 3.26532 17.6915 3.30513 18.597 3.36543C19.4767 3.42401 20.3115 3.5062 20.8372 3.63458C20.8489 3.63744 20.8606 3.64052 20.8722 3.6438C21.5123 3.8249 22.0932 4.1717 22.5564 4.64918C23.0196 5.12667 23.3485 5.71792 23.51 6.36323C23.5154 6.38483 23.5201 6.40661 23.5241 6.42852C23.852 8.24624 24.0113 10.0904 24 11.9374C24.0062 13.7568 23.8469 15.5729 23.5241 17.3635C23.5201 17.3854 23.5154 17.4072 23.51 17.4288C23.3485 18.0741 23.0196 18.6654 22.5564 19.1429C22.0932 19.6204 21.5123 19.9672 20.8722 20.1483L20.8583 20.1521C20.3247 20.2948 19.4826 20.3852 18.6033 20.4493C17.6961 20.5155 16.6588 20.5591 15.6847 20.5881C14.7089 20.6171 13.7885 20.6316 13.1125 20.6388C12.7743 20.6424 12.4969 20.6442 12.3036 20.6451C12.207 20.6456 12.1314 20.6458 12.0799 20.6459L12.0004 20.646L11.9201 20.6459C11.8685 20.6458 11.7929 20.6456 11.6963 20.6451C11.5031 20.6442 11.2256 20.6424 10.8874 20.6388C10.2114 20.6316 9.29099 20.6171 8.31526 20.5881C7.34113 20.5591 6.30386 20.5155 5.39659 20.4493C4.51729 20.3852 3.67525 20.2948 3.1416 20.1521L3.13604 20.1506C2.50897 19.979 1.93675 19.6486 1.47467 19.1913C1.01259 18.734 0.676269 18.1652 0.498203 17.5399C0.489164 17.5082 0.481701 17.476 0.475843 17.4435C0.148004 15.626 -0.0113041 13.7822 -5.36995e-05 11.9354C-0.00876796 10.1024 0.150527 8.27247 0.475836 6.46856C0.47979 6.44663 0.484476 6.42484 0.489887 6.40323C0.651405 5.75792 0.980357 5.16667 1.44352 4.68918C1.90668 4.2117 2.48764 3.8649 3.12773 3.6838L3.1416 3.67999C3.67525 3.53727 4.51729 3.44688 5.39659 3.38275C6.30386 3.31657 7.34113 3.27292 8.31526 3.24398C9.29099 3.21498 10.2114 3.20051 10.8874 3.19328C11.2256 3.18966 11.5031 3.18785 11.6963 3.18694C11.7929 3.18649 11.8685 3.18626 11.9201 3.18615L11.9998 3.18604Z" fill="white"/>
<path fill-rule="evenodd" clip-rule="evenodd" d="M9.24718 7.80162C9.55499 7.62257 9.9348 7.62071 10.2443 7.79675L15.9943 11.0668C16.3069 11.2445 16.5 11.5764 16.5 11.936C16.5 12.2956 16.3069 12.6275 15.9943 12.8053L10.2443 16.0753C9.9348 16.2513 9.55499 16.2495 9.24718 16.0704C8.93937 15.8914 8.75 15.5621 8.75 15.206V8.66602C8.75 8.30991 8.93937 7.98068 9.24718 7.80162ZM10.75 10.3851V13.4869L13.4771 11.936L10.75 10.3851Z" fill="white"/>
</svg>
